<svg xmlns="http://www.w3.org/2000/svg" viewBox="0 0 22 20.89941"><defs><style>.cls-1{fill:#c6cdd7;}</style></defs><title>advertisers-02</title><g id="Capa_2" data-name="Capa 2"><g id="Capa_1-2" data-name="Capa 1"><path class="cls-1" d="M22,20.89941,16.34424,17H2.5A2.50294,2.50294,0,0,1,0,14.5V2.5A2.50294,2.50294,0,0,1,2.5,0h17A2.50294,2.50294,0,0,1,22,2.5ZM2.5,1A1.50164,1.50164,0,0,0,1,2.5v12A1.50164,1.50164,0,0,0,2.5,16H16.65576L21,18.99512V2.5A1.50164,1.50164,0,0,0,19.5,1Z"/><path class="cls-1" d="M11,12.5a4.00458,4.00458,0,0,1-4-4H8a3,3,0,0,0,6,0h1A4.00458,4.00458,0,0,1,11,12.5Z"/><rect class="cls-1" x="9" y="4.5" width="1" height="2"/><rect class="cls-1" x="12" y="4.5" width="1" height="2"/></g></g></svg>