<svg xmlns="http://www.w3.org/2000/svg" viewBox="0 0 25.5 19.05518"><defs><style>.cls-1{fill:#c6cdd7;}</style></defs><title>agencies</title><g id="Capa_2" data-name="Capa 2"><g id="Capa_1-2" data-name="Capa 1"><path class="cls-1" d="M17.86084,6.25H17.6665V1.38184A1.38369,1.38369,0,0,0,16.28467,0a1.632,1.632,0,0,0-.22656.02,1.3526,1.3526,0,0,0-.96485.67627A8.23145,8.23145,0,0,1,12.061,3.74121,8.26125,8.26125,0,0,1,7.90967,4.86084H3.97217a3.96185,3.96185,0,0,0-.3404,7.90991L5.958,18.00488a1.76917,1.76917,0,0,0,3.2334-1.437L7.51953,12.80518h.39014a8.29947,8.29947,0,0,1,7.18164,4.16162,1.36264,1.36264,0,0,0,.97949.68164,1.58072,1.58072,0,0,0,.21387.01806,1.38368,1.38368,0,0,0,1.38183-1.38183V11.4165h.19434a2.58325,2.58325,0,1,0,0-5.1665ZM1,8.833A2.97578,2.97578,0,0,1,3.97217,5.86084H6.94434v5.94434H3.97217A2.97578,2.97578,0,0,1,1,8.833Zm7.21973,8.87207a.79657.79657,0,0,1-1.34766-.10645L4.7417,12.80518H6.4248l1.85254,4.16894A.75516.75516,0,0,1,8.21973,17.70508Zm8.44677-1.42041a.39182.39182,0,0,1-.44726.37451.35346.35346,0,0,1-.25781-.18506,9.29925,9.29925,0,0,0-8.01709-4.66894V5.86084A9.26155,9.26155,0,0,0,12.5625,4.60645a9.22907,9.22907,0,0,0,3.40088-3.418.34643.34643,0,0,1,.24609-.17969.39114.39114,0,0,1,.457.373V16.28467Zm1.19434-5.86817H17.6665V7.25h.19434a1.58325,1.58325,0,1,1,0,3.1665Z"/><rect class="cls-1" x="23.4165" y="8.33301" width="2.0835" height="1"/><rect class="cls-1" x="22.02569" y="12.45662" width="0.99989" height="2.08334" transform="translate(-2.94713 19.88159) rotate(-45)"/><rect class="cls-1" x="21.48396" y="3.66827" width="2.08334" height="0.99989" transform="translate(3.65023 17.14887) rotate(-45)"/></g></g></svg>