<svg xmlns="http://www.w3.org/2000/svg" viewBox="0 0 22 17"><defs><style>.cls-1{fill:#c6cdd7;}</style></defs><title>campaigns</title><g id="Capa_2" data-name="Capa 2"><g id="Capa_1-2" data-name="Capa 1"><path class="cls-1" d="M19.5,17H2.5A2.50294,2.50294,0,0,1,0,14.5V2.5A2.50294,2.50294,0,0,1,2.5,0h17A2.50294,2.50294,0,0,1,22,2.5v12A2.50294,2.50294,0,0,1,19.5,17ZM2.5,1A1.50164,1.50164,0,0,0,1,2.5v12A1.50164,1.50164,0,0,0,2.5,16h17A1.50164,1.50164,0,0,0,21,14.5V2.5A1.50164,1.50164,0,0,0,19.5,1Z"/><path class="cls-1" d="M9.5,11.88672a.49978.49978,0,0,1-.5-.5V5.61328A.49974.49974,0,0,1,9.79248,5.208l4,2.88672a.49949.49949,0,0,1,0,.81054l-4,2.88672A.49764.49764,0,0,1,9.5,11.88672Zm.5-5.2959v3.81836L12.64551,8.5Z"/></g></g></svg>