<svg xmlns="http://www.w3.org/2000/svg" viewBox="0 0 24 24"><defs><style>.cls-1{fill:#c6cdd7;}</style></defs><title>dsps</title><g id="Capa_2" data-name="Capa 2"><g id="Capa_1-2" data-name="Capa 1"><path class="cls-1" d="M24,7.5v-1H20.5V6A2.50294,2.50294,0,0,0,18,3.5h-.5V0h-1V3.5h-4V0h-1V3.5h-4V0h-1V3.5H6A2.50294,2.50294,0,0,0,3.5,6v.5H0v1H3.5v4H0v1H3.5v4H0v1H3.5V18A2.50294,2.50294,0,0,0,6,20.5h.5V24h1V20.5h4V24h1V20.5h4V24h1V20.5H18A2.50294,2.50294,0,0,0,20.5,18v-.5H24v-1H20.5v-4H24v-1H20.5v-4ZM19.5,18A1.50164,1.50164,0,0,1,18,19.5H6A1.50164,1.50164,0,0,1,4.5,18V6A1.50164,1.50164,0,0,1,6,4.5H18A1.50164,1.50164,0,0,1,19.5,6Z"/></g></g></svg>