<svg xmlns="http://www.w3.org/2000/svg" width="18.97" height="19.031" viewBox="0 0 18.97 19.031">
  <defs>
    <style>
      .cls-1 {
        fill: #464951;
        fill-opacity: 0.5;
        fill-rule: evenodd;
      }
    </style>
  </defs>
  <path id="Forma_986" data-name="Forma 986" class="cls-1" d="M1770.98,382.963a1.088,1.088,0,0,1-1.05-1.333l1.07-4.663,12.99-13.023,4.88,4.891-12.99,13.024-4.65,1.076A1.058,1.058,0,0,1,1770.98,382.963Zm0.92-5.5-1.01,4.387,0.23,0.6-0.11-.483,4.37-1.013,12.09-12.122-3.48-3.491Zm13.83-6.186-4.18-4.191,0.7-.7,4.18,4.191Zm-9.6,10.128h-0.99v-2.02h-1.67v-1.676h-2.02v-0.99h3V378.4h1.68v3.01Zm6.72,1.555h-11.82v-0.99h11.82v0.99Z" transform="translate(-1769.91 -363.938)"/>
</svg>
