<svg id="Capa_1" data-name="Capa 1" xmlns="http://www.w3.org/2000/svg" viewBox="0 0 28 28"><defs><style>.cls-1{fill:#a6a9b0;}</style></defs><title>eliminar-publisher</title><path class="cls-1" d="M21.67347,8.45419h-15v1H8.48322a1.501,1.501,0,0,0-.09686.51758V20.49716a1.51915,1.51915,0,0,0,1.51758,1.51758H18.443a1.51915,1.51915,0,0,0,1.51758-1.51758V9.97177a1.501,1.501,0,0,0-.09686-.51758h1.80975ZM18.96058,9.97177V20.49716a.51847.51847,0,0,1-.51758.51758H9.90394a.51847.51847,0,0,1-.51758-.51758V9.97177a.51847.51847,0,0,1,.51758-.51758H18.443A.51847.51847,0,0,1,18.96058,9.97177Z"/><path class="cls-1" d="M16.14906,7.97519h3.55761v-1H16.14478a1.51691,1.51691,0,0,0-1.5133-1.4751h-.916a1.5169,1.5169,0,0,0-1.5133,1.4751H8.64027v1h7.50879Zm-2.4336-1.4751h.916a.51763.51763,0,0,1,.51562.4751H13.19984A.51763.51763,0,0,1,13.71546,6.50009Z"/><rect class="cls-1" x="13.67347" y="10.67538" width="1" height="9.11816"/><rect class="cls-1" x="11.17347" y="10.67538" width="1" height="9.11816"/><rect class="cls-1" x="16.17347" y="10.67538" width="1" height="9.11816"/></svg>