<svg xmlns="http://www.w3.org/2000/svg" width="19" height="19" viewBox="0 0 19 19">
  <defs>
    <style>
      .cls-1 {
        fill: #828b94;
        fill-rule: evenodd;
      }
    </style>
  </defs>
  <path id="Forma_1213" data-name="Forma 1213" class="cls-1" d="M959.219,636.969a0.5,0.5,0,0,1-.354-0.147l-3.656-3.656a0.5,0.5,0,0,1,.707-0.707l3.3,3.3,8.8-8.8a0.5,0.5,0,0,1,.707.707l-9.158,9.158A0.5,0.5,0,0,1,959.219,636.969ZM959.5,644a9.5,9.5,0,1,1,5.4-17.314,0.5,0.5,0,0,1-.569.823,8.535,8.535,0,1,0,3.225,4.288,0.5,0.5,0,0,1,.948-0.319A9.486,9.486,0,0,1,959.5,644Z" transform="translate(-950 -625)"/>
</svg>
