<svg xmlns="http://www.w3.org/2000/svg" viewBox="0 0 19.5 14.9585"><defs><style>.cls-1{fill:#ff4747;}</style></defs><title>entrar-cuenta_1</title><g id="Capa_2" data-name="Capa 2"><g id="Capa_1-2" data-name="Capa 1"><path class="cls-1" d="M18.26465,14.9585H3.96875a1.23241,1.23241,0,0,1-1.231-1.231V10.67529h1v3.05225a.23431.23431,0,0,0,.231.231h14.2959a.23332.23332,0,0,0,.23535-.231V1.23535A.233.233,0,0,0,18.26465,1H3.96875a.23332.23332,0,0,0-.231.23535V4.2002h-1V1.23535A1.2346,1.2346,0,0,1,3.96875,0h14.2959A1.23678,1.23678,0,0,1,19.5,1.23535V13.72754A1.2346,1.2346,0,0,1,18.26465,14.9585Z"/><rect class="cls-1" y="7.021" width="13.87549" height="1"/><polygon class="cls-1" points="11.454 10.649 10.747 9.942 13.168 7.521 10.747 5.099 11.454 4.392 14.583 7.521 11.454 10.649"/></g></g></svg>