<svg xmlns="http://www.w3.org/2000/svg" xmlns:xlink="http://www.w3.org/1999/xlink" viewBox="0 0 300 66.32118"><defs><style>.cls-1{fill:#fff;}.cls-2{fill:#282828;}.cls-3{fill:#ff176b;}.cls-4{mask:url(#mask);}.cls-5{fill:url(#Degradado_sin_nombre_8);}.cls-6{fill:url(#Degradado_sin_nombre_8-2);}.cls-7{fill:url(#Degradado_sin_nombre_8-3);}.cls-8{fill:url(#Degradado_sin_nombre_8-4);}.cls-9{fill:url(#Degradado_sin_nombre_8-5);}.cls-10{fill:url(#Degradado_sin_nombre_8-6);}.cls-11{fill:url(#Degradado_sin_nombre_8-7);}.cls-12{fill:url(#Degradado_sin_nombre_8-8);}.cls-13{fill:url(#Degradado_sin_nombre_8-9);}</style><mask id="mask" x="0" y="0" width="47.27463" height="66.32242" maskUnits="userSpaceOnUse"><path class="cls-1" d="M4.94033.00263A4.93944,4.93944,0,0,0,.00158,4.94137v56.4423a4.93875,4.93875,0,0,0,9.8775,0V4.94137A4.93944,4.93944,0,0,0,4.94033.00263Z"/><path class="cls-1" d="M46.74534,32.06064,30.51583,19.07669a1.41127,1.41127,0,0,0-2.29287,1.1018V46.1464a1.41128,1.41128,0,0,0,2.29287,1.10181l12.9087-10.3273,3.32081-2.65666A1.41145,1.41145,0,0,0,46.74534,32.06064Z"/><path class="cls-1" d="M19.05086,11.29108a4.93945,4.93945,0,0,0-4.93875,4.93875V50.09537a4.93875,4.93875,0,0,0,9.8775,0V16.22983A4.93945,4.93945,0,0,0,19.05086,11.29108Z"/></mask><linearGradient id="Degradado_sin_nombre_8" x1="18.58834" y1="27.3486" x2="-3.05758" y2="5.70269" gradientUnits="userSpaceOnUse"><stop offset="0" stop-color="#9900ba" stop-opacity="0.5"/><stop offset="0.7" stop-color="#ff176b"/></linearGradient><linearGradient id="Degradado_sin_nombre_8-2" x1="29.5587" y1="35.71158" x2="10.96504" y2="17.11791" xlink:href="#Degradado_sin_nombre_8"/><linearGradient id="Degradado_sin_nombre_8-3" x1="42.12779" y1="40.44235" x2="24.65104" y2="22.96561" xlink:href="#Degradado_sin_nombre_8"/><linearGradient id="Degradado_sin_nombre_8-4" x1="16.7346" y1="21.57725" x2="-0.6455" y2="4.19714" xlink:href="#Degradado_sin_nombre_8"/><linearGradient id="Degradado_sin_nombre_8-5" x1="28.91866" y1="32.19729" x2="12.41409" y2="15.69272" xlink:href="#Degradado_sin_nombre_8"/><linearGradient id="Degradado_sin_nombre_8-6" x1="41.98377" y1="38.59924" x2="25.5063" y2="22.12177" xlink:href="#Degradado_sin_nombre_8"/><linearGradient id="Degradado_sin_nombre_8-7" x1="12.80401" y1="11.50892" x2="6.82507" y2="5.52999" xlink:href="#Degradado_sin_nombre_8"/><linearGradient id="Degradado_sin_nombre_8-8" x1="28.34075" y1="27.92736" x2="14.27402" y2="13.86063" xlink:href="#Degradado_sin_nombre_8"/><linearGradient id="Degradado_sin_nombre_8-9" x1="41.49358" y1="36.32216" x2="26.40769" y2="21.23627" xlink:href="#Degradado_sin_nombre_8"/></defs><g id="Capa_2" data-name="Capa 2"><g id="Capa_1-2" data-name="Capa 1"><path class="cls-2" d="M72.40575,18.371,79.19757,40.6712h.33977L86.27253,18.371h8.37683L84.405,49.44443H74.1034L63.91567,18.371Z"/><path class="cls-2" d="M106.81911,14.57865H98.61217V7.10728h8.20694Zm-.11326,34.80915H98.72543V18.371h7.98042Z"/><path class="cls-2" d="M128.32715,17.69141a39.26,39.26,0,0,1,5.03754.39641V6.20183h7.92379v43.186h-6.50867c-.11326-.16989-.62292-1.81152-.73618-2.03742a18.58122,18.58122,0,0,1-9.28228,2.60371c-6.396,0-12.339-4.01883-12.339-15.22588C112.42233,21.65362,119.38465,17.69141,128.32715,17.69141Zm-1.641,25.47025a15.70122,15.70122,0,0,0,6.62193-1.92417V24.70975A22.5684,22.5684,0,0,0,129.176,24.314c-5.943,0-8.60272,2.88625-8.60272,9.96183C120.57325,40.44468,122.89382,43.16166,126.68613,43.16166Z"/><path class="cls-2" d="M162.57062,50.06673c-8.82924,0-15.73493-4.86765-15.73493-16.18735,0-11.26368,6.90569-16.188,15.73493-16.188,8.88649,0,15.79156,5.03755,15.79156,16.188S171.45711,50.06673,162.57062,50.06673Zm.05663-25.52625c-5.3767,0-7.64064,3.39591-7.64064,9.3389,0,5.99963,2.26394,9.39554,7.64064,9.39554,5.37732,0,7.58463-3.39591,7.58463-9.39554C170.21188,27.93639,168.00457,24.54048,162.62725,24.54048Z"/><path class="cls-2" d="M198.00331,50.06673c-8.82925,0-15.73494-4.86765-15.73494-16.18735,0-11.26368,6.90569-16.188,15.73494-16.188,8.88648,0,15.79156,5.03755,15.79156,16.188S206.88979,50.06673,198.00331,50.06673Zm.05662-25.52625c-5.3767,0-7.64064,3.39591-7.64064,9.3389,0,5.99963,2.26394,9.39554,7.64064,9.39554,5.37732,0,7.58463-3.39591,7.58463-9.39554C205.64456,27.93639,203.43725,24.54048,198.05993,24.54048Z"/><path class="cls-2" d="M238.19039,49.3878V28.44543c0-2.32056-1.07534-3.56579-3.67906-3.56579-2.15068,0-4.69777,1.1886-7.13159,2.717V49.3878h-7.98042V18.371h7.47137v3.28266h.22652c3.33928-2.26394,6.67856-3.96221,10.18772-3.96221s6.45266,1.30186,7.92441,4.35861c3.7917-2.717,7.24485-4.35861,10.86728-4.35861,5.09355,0,8.9425,2.66035,8.9425,9.28289V49.3878H257.0387V28.44543c0-2.32056-1.132-3.56579-3.67906-3.56579a14.03825,14.03825,0,0,0-7.18822,2.717V49.3878Z"/><path class="cls-2" d="M278.20881,60.99064l3.84895-11.60284h-3.22664L268.92654,18.371h8.716l6.56592,22.4135h.453l6.79182-22.4135H300L286.529,60.99064Z"/><path class="cls-3" d="M9.87688,4.94183v56.444a4.93844,4.93844,0,0,1-9.87688,0V4.94183A4.94264,4.94264,0,0,1,3.55472.19543,5.04428,5.04428,0,0,1,4.94152,0,4.934,4.934,0,0,1,9.46078,2.96257,4.81826,4.81826,0,0,1,9.87688,4.94183Z"/><path class="cls-3" d="M47.24789,33.419a1.38255,1.38255,0,0,1-.50443.84452l-3.32174,2.66L30.513,47.24789a1.40848,1.40848,0,0,1-2.288-1.103V20.17633a1.40651,1.40651,0,0,1,2.288-1.09688L45.28125,30.89157l1.456,1.15967.00616.00616A1.4047,1.4047,0,0,1,47.24789,33.419Z"/><path class="cls-3" d="M23.98957,16.23044V50.0969a4.9386,4.9386,0,0,1-9.87719,0V16.23044a4.9386,4.9386,0,1,1,9.87719,0Z"/><g class="cls-4"><path class="cls-5" d="M9.46078,2.96257a4.81826,4.81826,0,0,1,.4161,1.97926V33.70272A32.22782,32.22782,0,0,1,0,22.54V4.94183A4.94264,4.94264,0,0,1,3.55472.19543,5.04428,5.04428,0,0,1,4.94152,0,4.934,4.934,0,0,1,9.46078,2.96257Z"/><path class="cls-6" d="M23.98957,16.23044V39.25578A31.9475,31.9475,0,0,1,14.11238,36.224V16.23044a4.9386,4.9386,0,1,1,9.87719,0Z"/><path class="cls-7" d="M47.24789,33.419a31.99175,31.99175,0,0,1-18.884,6.13289h-.13881V20.17633a1.40651,1.40651,0,0,1,2.288-1.09688L45.28125,30.89157l1.456,1.15967.00616.00616A1.4047,1.4047,0,0,1,47.24789,33.419Z"/><path class="cls-8" d="M9.46078,2.96257a4.81826,4.81826,0,0,1,.4161,1.97926V26.5422A28.97929,28.97929,0,0,1,3.55472.19543,5.04428,5.04428,0,0,1,4.94152,0,4.934,4.934,0,0,1,9.46078,2.96257Z"/><path class="cls-9" d="M23.98957,16.23044V35.329a28.75482,28.75482,0,0,1-9.87719-4.8535v-14.245a4.9386,4.9386,0,1,1,9.87719,0Z"/><path class="cls-10" d="M46.7373,32.05124a28.79253,28.79253,0,0,1-15.1591,4.286,28.02539,28.02539,0,0,1-3.35313-.19512V20.17633a1.40651,1.40651,0,0,1,2.288-1.09688L45.28125,30.89157Z"/><path class="cls-11" d="M9.46078,2.96257a4.81826,4.81826,0,0,1,.4161,1.97926v8.84309a25.83962,25.83962,0,0,1-.4161-10.82235Z"/><path class="cls-12" d="M23.98957,16.23044V30.74661a25.79055,25.79055,0,0,1-9.87719-8.05551V16.23044a4.9386,4.9386,0,1,1,9.87719,0Z"/><path class="cls-13" d="M30.513,19.07945,45.28125,30.89157a25.54408,25.54408,0,0,1-10.48841,2.23132,25.66915,25.66915,0,0,1-6.56777-.851V20.17633A1.40651,1.40651,0,0,1,30.513,19.07945Z"/></g></g></g></svg>